<svg width="16" height="16" viewBox="0 0 16 16" fill="none" xmlns="http://www.w3.org/2000/svg">
<g clip-path="url(#clip0_576_60100)">
<path d="M6.4001 0H16.0001V16H6.39697L6.4001 0Z" fill="#FF0000"/>
<path d="M0.000195313 0H6.4002V16H-0.00292969L0.000195313 0Z" fill="#006600"/>
<path fill-rule="evenodd" clip-rule="evenodd" d="M9.18115 10.2063C8.10615 10.175 3.18115 7.1 3.1499 6.60938L3.41865 6.15625C3.90615 6.86563 8.94365 9.85625 9.4374 9.75L9.18115 10.2063Z" fill="#FFFF00" stroke="#383838" stroke-width="0.0875" stroke-linecap="round" stroke-linejoin="round"/>
<path fill-rule="evenodd" clip-rule="evenodd" d="M3.36216 6.09365C3.26528 6.35303 4.64653 7.20615 6.30903 8.21865C7.97153 9.22803 9.40278 9.85303 9.51216 9.76553L9.55903 9.6749C9.54028 9.70615 9.49028 9.71553 9.41528 9.69365C8.96528 9.5624 7.79341 9.0249 6.34341 8.14678C4.89341 7.26865 3.63091 6.45615 3.43716 6.1124C3.42119 6.08046 3.41366 6.04496 3.41528 6.00928H3.40903L3.36841 6.08115L3.36216 6.09365ZM9.20591 10.2187C9.18716 10.253 9.15278 10.253 9.09028 10.2499C8.68716 10.203 7.46528 9.60928 6.02778 8.74678C4.34653 7.74053 2.95903 6.8249 3.11216 6.5874L3.15278 6.5124L3.15903 6.51553C3.02466 6.92178 5.89653 8.5624 6.06528 8.66865C7.72466 9.6999 9.12778 10.2999 9.25278 10.1437L9.20591 10.2187Z" fill="#FFFF00" stroke="#383838" stroke-width="0.0875" stroke-linecap="round" stroke-linejoin="round"/>
<path fill-rule="evenodd" clip-rule="evenodd" d="M6.40586 6.90615C7.47773 6.89678 8.80586 6.75928 9.56836 6.45615L9.40586 6.1874C8.95273 6.4374 7.62148 6.60303 6.39648 6.6249C4.94648 6.6124 3.92461 6.47803 3.41211 6.13428L3.25586 6.41865C4.19961 6.81553 5.16211 6.90303 6.40586 6.90615Z" fill="#FFFF00" stroke="#383838" stroke-width="0.0875" stroke-linecap="round" stroke-linejoin="round"/>
<path fill-rule="evenodd" clip-rule="evenodd" d="M9.61533 6.4626C9.58721 6.50322 9.09033 6.6751 8.35596 6.8001C7.70842 6.89721 7.05448 6.94526 6.39971 6.94385C5.77274 6.94667 5.14631 6.907 4.52471 6.8251C3.75908 6.70322 3.35908 6.53447 3.21221 6.4751L3.24971 6.40322C3.66528 6.56702 4.09834 6.68236 4.54033 6.74697C5.15679 6.8276 5.77801 6.86623 6.39971 6.8626C7.04926 6.863 7.69793 6.81495 8.34033 6.71885C9.09033 6.59697 9.50283 6.44072 9.55908 6.36885L9.61533 6.4626ZM9.46846 6.1876C9.38721 6.2501 8.98096 6.39697 8.26846 6.50947C7.65263 6.59787 7.03122 6.64174 6.40908 6.64072C5.80917 6.64528 5.2097 6.60663 4.61533 6.5251C3.88721 6.43135 3.50283 6.25947 3.36533 6.20947L3.40596 6.1376C3.51221 6.19385 3.88721 6.34385 4.62471 6.4501C5.21635 6.52678 5.8125 6.56332 6.40908 6.55947C7.02603 6.56032 7.64223 6.51646 8.25283 6.42822C8.97158 6.32822 9.35908 6.14697 9.41846 6.1001L9.46846 6.1876ZM2.87471 8.2001C3.53721 8.55635 5.00283 8.7376 6.39346 8.7501C7.65908 8.7501 9.30908 8.55322 9.92471 8.2251L9.90596 7.86885C9.71533 8.17197 7.94971 8.4626 6.38096 8.4501C4.81221 8.4376 3.35596 8.19385 2.87158 7.88135V8.2001" fill="#FFFF00"/>
<path d="M2.87471 8.2001C3.53721 8.55635 5.00283 8.7376 6.39346 8.7501C7.65908 8.7501 9.30908 8.55322 9.92471 8.2251L9.90596 7.86885C9.71533 8.17197 7.94971 8.4626 6.38096 8.4501C4.81221 8.4376 3.35596 8.19385 2.87158 7.88135V8.2001M9.61533 6.4626C9.58721 6.50322 9.09033 6.6751 8.35596 6.8001C7.70842 6.89721 7.05448 6.94526 6.39971 6.94385C5.77274 6.94667 5.14631 6.907 4.52471 6.8251C3.75908 6.70322 3.35908 6.53447 3.21221 6.4751L3.24971 6.40322C3.66528 6.56702 4.09834 6.68236 4.54033 6.74697C5.15679 6.8276 5.77801 6.86623 6.39971 6.8626C7.04926 6.863 7.69793 6.81495 8.34033 6.71885C9.09033 6.59697 9.50283 6.44072 9.55908 6.36885L9.61533 6.4626ZM9.46846 6.1876C9.38721 6.2501 8.98096 6.39697 8.26846 6.50947C7.65263 6.59787 7.03122 6.64174 6.40908 6.64072C5.80917 6.64528 5.2097 6.60663 4.61533 6.5251C3.88721 6.43135 3.50283 6.25947 3.36533 6.20947L3.40596 6.1376C3.51221 6.19385 3.88721 6.34385 4.62471 6.4501C5.21635 6.52678 5.8125 6.56332 6.40908 6.55947C7.02603 6.56032 7.64223 6.51646 8.25283 6.42822C8.97158 6.32822 9.35908 6.14697 9.41846 6.1001L9.46846 6.1876Z" stroke="#383838" stroke-width="0.0875" stroke-linecap="round" stroke-linejoin="round"/>
<path fill-rule="evenodd" clip-rule="evenodd" d="M9.95918 8.1499V8.23428C9.86543 8.34678 9.28418 8.51553 8.55605 8.63115C7.83483 8.73594 7.10671 8.78608 6.37793 8.78115C5.52168 8.78115 4.84043 8.71865 4.30918 8.6374C3.79945 8.57947 3.30125 8.4457 2.83105 8.24053V8.14053C3.15605 8.35615 4.02793 8.5124 4.32168 8.55928C4.84668 8.64053 5.52481 8.6999 6.37793 8.6999C7.27481 8.6999 7.99355 8.6374 8.54355 8.55303C9.06855 8.47803 9.8123 8.28115 9.95918 8.1499ZM9.95918 7.84678V7.93428C9.86543 8.04365 9.28418 8.2124 8.55605 8.32803C7.83483 8.43281 7.10671 8.48295 6.37793 8.47803C5.52168 8.47803 4.84043 8.41553 4.3123 8.3374C3.80137 8.27869 3.30209 8.14386 2.83105 7.9374V7.8374C3.15605 8.05303 4.02793 8.2124 4.32168 8.25615C4.8498 8.3374 5.52793 8.3999 6.37793 8.3999C7.27481 8.3999 7.99355 8.3374 8.54355 8.2499C9.06855 8.1749 9.8123 7.97803 9.95918 7.84678ZM6.39043 10.1437C4.87168 10.1343 3.56855 9.73115 3.29355 9.6624L3.49355 9.9749C3.97793 10.1812 5.2498 10.4874 6.40605 10.453C7.5623 10.4187 8.57168 10.328 9.28105 9.98428L9.4873 9.65615C9.00293 9.88428 7.35293 10.1437 6.39355 10.1437" fill="#FFFF00"/>
<path d="M6.39043 10.1437C4.87168 10.1343 3.56855 9.73115 3.29355 9.6624L3.49355 9.9749C3.97793 10.1812 5.2498 10.4874 6.40605 10.453C7.5623 10.4187 8.57168 10.328 9.28105 9.98428L9.4873 9.65615C9.00293 9.88428 7.35293 10.1437 6.39355 10.1437M9.95918 8.1499V8.23428C9.86543 8.34678 9.28418 8.51553 8.55605 8.63115C7.83483 8.73594 7.10671 8.78608 6.37793 8.78115C5.52168 8.78115 4.84043 8.71865 4.30918 8.6374C3.79945 8.57947 3.30125 8.4457 2.83105 8.24053V8.14053C3.15605 8.35615 4.02793 8.5124 4.32168 8.55928C4.84668 8.64053 5.5248 8.6999 6.37793 8.6999C7.2748 8.6999 7.99355 8.6374 8.54355 8.55303C9.06855 8.47803 9.8123 8.28115 9.95918 8.1499ZM9.95918 7.84678V7.93428C9.86543 8.04365 9.28418 8.2124 8.55605 8.32803C7.83483 8.43281 7.10671 8.48295 6.37793 8.47803C5.52168 8.47803 4.84043 8.41553 4.3123 8.3374C3.80137 8.27869 3.30209 8.14386 2.83105 7.9374V7.8374C3.15605 8.05303 4.02793 8.2124 4.32168 8.25615C4.8498 8.3374 5.52793 8.3999 6.37793 8.3999C7.2748 8.3999 7.99355 8.3374 8.54355 8.2499C9.06855 8.1749 9.8123 7.97803 9.95918 7.84678Z" stroke="#383838" stroke-width="0.0875" stroke-linecap="round" stroke-linejoin="round"/>
<path fill-rule="evenodd" clip-rule="evenodd" d="M9.35908 9.90947C9.32863 9.95585 9.29738 10.0017 9.26533 10.047C8.91073 10.1646 8.5484 10.2575 8.18096 10.3251C7.59132 10.4336 6.993 10.488 6.39346 10.4876C5.04658 10.4688 3.94346 10.2063 3.42471 9.98135L3.38096 9.90947L3.39033 9.89697L3.45908 9.9251C4.40789 10.2395 5.40019 10.4029 6.39971 10.4095C7.02471 10.4126 7.64971 10.3376 8.15283 10.2501C8.92783 10.0938 9.24033 9.97822 9.33721 9.9251L9.35908 9.90947ZM9.53721 9.61572H9.54033C9.5177 9.65547 9.49479 9.69506 9.47158 9.73447C9.29346 9.79697 8.80596 9.94072 8.09658 10.0407C7.62783 10.1032 7.33721 10.1657 6.40908 10.1845C5.34566 10.173 4.28888 10.0153 3.26846 9.71572L3.23096 9.6376C4.26742 9.92205 5.33463 10.0795 6.40908 10.1063C7.25908 10.0876 7.62158 10.0251 8.08408 9.95947C8.91221 9.83447 9.32783 9.69697 9.45283 9.65635C9.45187 9.65423 9.45083 9.65214 9.44971 9.6501L9.53721 9.61572Z" fill="#FFFF00" stroke="#383838" stroke-width="0.075" stroke-linecap="round" stroke-linejoin="round"/>
<path fill-rule="evenodd" clip-rule="evenodd" d="M9.55615 7.91865C9.5624 8.91865 9.0499 9.81865 8.6374 10.2155C8.03147 10.8048 7.22318 11.1402 6.37803 11.153C5.36865 11.1718 4.41865 10.5124 4.1624 10.2249C3.6624 9.65928 3.25615 8.94365 3.24365 7.9749C3.30615 6.88115 3.73428 6.12178 4.35615 5.5999C4.95791 5.10494 5.71451 4.83725 6.49365 4.84365C7.2874 4.86553 8.21865 5.25615 8.85928 6.03115C9.27803 6.5374 9.4624 7.0874 9.55615 7.92178V7.91865ZM6.3874 4.49365C8.3249 4.49365 9.91865 6.07178 9.91865 8.00303C9.91287 8.93578 9.53828 9.82835 8.87667 10.4859C8.21506 11.1434 7.32017 11.5124 6.3874 11.5124C4.4499 11.5124 2.86865 9.9374 2.86865 8.00303C2.86865 6.06865 4.4499 4.49365 6.3874 4.49365Z" fill="#FFFF00" stroke="#383838" stroke-width="0.0875" stroke-linecap="round" stroke-linejoin="round"/>
<path fill-rule="evenodd" clip-rule="evenodd" d="M6.39687 4.48115C8.33437 4.48115 9.91562 6.06553 9.91562 8.00303C9.91562 9.94053 8.33437 11.5249 6.39687 11.5249C5.46304 11.5224 4.5682 11.1501 3.90817 10.4895C3.24813 9.82891 2.87665 8.93374 2.875 7.9999C2.87747 7.0666 3.24932 6.17224 3.90927 5.51229C4.56921 4.85235 5.46358 4.4805 6.39687 4.47803V4.48115ZM2.95312 8.00303C2.95312 9.89678 4.50937 11.4468 6.39687 11.4468C8.28438 11.4468 9.8375 9.89678 9.8375 8.00303C9.8375 6.10928 8.28438 4.5624 6.39687 4.5624C5.48509 4.56569 4.61154 4.92914 3.96651 5.57358C3.32148 6.21802 2.95724 7.09124 2.95312 8.00303Z" fill="#FFFF00" stroke="#383838" stroke-width="0.0875" stroke-linecap="round" stroke-linejoin="round"/>
<path fill-rule="evenodd" clip-rule="evenodd" d="M6.4 4.7749C8.16563 4.7749 9.62187 6.22803 9.62187 7.9999C9.62187 9.7749 8.16563 11.2249 6.4 11.2249C5.54515 11.2224 4.72597 10.882 4.1212 10.2778C3.51643 9.6736 3.17517 8.85475 3.17188 7.9999C3.17187 6.22803 4.62812 4.7749 6.39687 4.7749H6.4ZM3.25 7.9999C3.25 9.73115 4.67188 11.1468 6.4 11.1468C8.125 11.1468 9.54688 9.73115 9.54688 7.9999C9.54688 6.26865 8.125 4.85303 6.39687 4.85303C4.66875 4.85303 3.25 6.26865 3.25 7.9999Z" fill="#FFFF00" stroke="#383838" stroke-width="0.0875" stroke-linecap="round" stroke-linejoin="round"/>
<path fill-rule="evenodd" clip-rule="evenodd" d="M6.54043 4.46875H6.2373V11.5437H6.54043V4.46875Z" fill="#FFFF00" stroke="#383838" stroke-width="0.0875" stroke-linecap="round" stroke-linejoin="round"/>
<path fill-rule="evenodd" clip-rule="evenodd" d="M6.50898 4.42822H6.58711V11.5845H6.50898V4.42822ZM6.20898 4.42822H6.28711V11.5845H6.20898V4.42822Z" fill="#FFFF00" stroke="#383838" stroke-width="0.0875" stroke-linecap="round" stroke-linejoin="round"/>
<path fill-rule="evenodd" clip-rule="evenodd" d="M9.91855 8.14072V7.8751L9.70605 7.67822L8.49668 7.35635L6.75293 7.17822L4.65918 7.28447L3.1623 7.64072L2.8623 7.86572V8.1251L3.6248 7.78135L5.4373 7.5001H7.18106L8.4623 7.64072L9.3498 7.85635L9.91855 8.14072Z" fill="#FFFF00" stroke="#383838" stroke-width="0.0875" stroke-linecap="round" stroke-linejoin="round"/>
<path fill-rule="evenodd" clip-rule="evenodd" d="M6.39668 7.45962C7.16071 7.4565 7.92338 7.5245 8.6748 7.66275C9.33418 7.794 9.7998 7.95962 9.95605 8.144V8.23775C9.76855 8.0065 9.14355 7.83775 8.65918 7.73775C8.0248 7.61587 7.22168 7.53775 6.39668 7.53775C5.52168 7.53775 4.70918 7.62212 4.08418 7.744C3.58418 7.844 2.91543 8.04087 2.83105 8.23775V8.144C2.87793 8.0065 3.3748 7.80337 4.0748 7.66275C4.84087 7.52377 5.61812 7.45577 6.39668 7.45962ZM6.39668 7.1565C7.16174 7.15354 7.92543 7.22154 8.67793 7.35962C9.33418 7.49087 9.80293 7.6565 9.95918 7.844V7.93462C9.76855 7.70337 9.14043 7.53462 8.65918 7.43775C8.0248 7.31275 7.22168 7.23462 6.39668 7.23462C5.62322 7.23223 4.85119 7.30127 4.09043 7.44087C3.60605 7.53462 2.90918 7.74087 2.83105 7.93462V7.84087C2.87793 7.7065 3.3873 7.49712 4.0748 7.36275C4.84077 7.22272 5.61802 7.15368 6.39668 7.1565ZM6.38105 5.61587C7.69043 5.60962 8.83418 5.80025 9.35605 6.069L9.54668 6.39712C9.09355 6.15337 7.85918 5.89712 6.38105 5.93775C5.17793 5.944 3.89355 6.069 3.24668 6.41275L3.4748 6.0315C4.00605 5.7565 5.25605 5.619 6.38105 5.61587Z" fill="#FFFF00" stroke="#383838" stroke-width="0.0875" stroke-linecap="round" stroke-linejoin="round"/>
<path fill-rule="evenodd" clip-rule="evenodd" d="M6.39648 5.88737C7.14648 5.88737 7.86523 5.928 8.44023 6.03112C8.97461 6.13112 9.48711 6.28112 9.55898 6.36237L9.61523 6.46237C9.43711 6.34675 8.99648 6.2155 8.42773 6.10925C7.75616 6.00224 7.0764 5.95518 6.39648 5.96862C5.55273 5.96862 4.89648 6.00925 4.33398 6.10925C3.74023 6.21862 3.32773 6.378 3.22461 6.453L3.28086 6.34987C3.47773 6.24675 3.79336 6.12487 4.32148 6.03112C4.90273 5.92487 5.56211 5.89362 6.39648 5.88737ZM6.39648 5.58737C7.05649 5.57699 7.71618 5.62299 8.36836 5.72487C8.80273 5.80925 9.23086 5.9405 9.39023 6.05612L9.47148 6.18737C9.33086 6.03112 8.80273 5.88425 8.33398 5.803C7.79024 5.70925 7.11211 5.67175 6.39648 5.6655C5.64648 5.6655 4.95273 5.71237 4.41523 5.80925C3.90273 5.90925 3.57148 6.02487 3.43086 6.1155L3.50273 6.003C3.69648 5.903 4.00898 5.80925 4.40273 5.73112C4.94336 5.63425 5.64336 5.58737 6.39648 5.58737ZM8.14648 9.4655C7.56869 9.36587 6.98267 9.32192 6.39648 9.33425C4.21211 9.35925 3.50898 9.78112 3.42148 9.90925L3.25898 9.64362C3.81211 9.2405 4.99961 9.0155 6.40586 9.03737C7.13398 9.04987 7.76211 9.09987 8.29336 9.19987L8.14336 9.4655" fill="#FFFF00"/>
<path d="M8.14648 9.4655C7.56869 9.36587 6.98267 9.32192 6.39648 9.33425C4.21211 9.35925 3.50898 9.78112 3.42148 9.90925L3.25898 9.64362C3.81211 9.2405 4.99961 9.0155 6.40586 9.03737C7.13398 9.04987 7.76211 9.09987 8.29336 9.19987L8.14336 9.4655M6.39648 5.88737C7.14648 5.88737 7.86523 5.928 8.44023 6.03112C8.97461 6.13112 9.48711 6.28112 9.55898 6.36237L9.61523 6.46237C9.43711 6.34675 8.99648 6.2155 8.42773 6.10925C7.75616 6.00224 7.0764 5.95518 6.39648 5.96862C5.55273 5.96862 4.89648 6.00925 4.33398 6.10925C3.74023 6.21862 3.32773 6.378 3.22461 6.453L3.28086 6.34987C3.47773 6.24675 3.79336 6.12487 4.32148 6.03112C4.90273 5.92487 5.56211 5.89362 6.39648 5.88737ZM6.39648 5.58737C7.05649 5.57699 7.71618 5.62299 8.36836 5.72487C8.80273 5.80925 9.23086 5.9405 9.39023 6.05612L9.47148 6.18737C9.33086 6.03112 8.80273 5.88425 8.33398 5.803C7.79023 5.70925 7.11211 5.67175 6.39648 5.6655C5.64648 5.6655 4.95273 5.71237 4.41523 5.80925C3.90273 5.90925 3.57148 6.02487 3.43086 6.1155L3.50273 6.003C3.69648 5.903 4.00898 5.80925 4.40273 5.73112C4.94336 5.63425 5.64336 5.58737 6.39648 5.58737Z" stroke="#383838" stroke-width="0.0875" stroke-linecap="round" stroke-linejoin="round"/>
<path fill-rule="evenodd" clip-rule="evenodd" d="M6.38428 9.29691C6.99053 9.30628 7.5874 9.32816 8.16553 9.43753L8.12178 9.51253C7.54912 9.41365 6.96846 9.36866 6.3874 9.37816C5.58115 9.37191 4.7624 9.4469 4.05615 9.65003C3.83115 9.71253 3.4624 9.85628 3.42178 9.97503L3.38115 9.90628C3.39365 9.83753 3.61865 9.69065 4.0374 9.57503C4.8499 9.34065 5.60928 9.30315 6.38115 9.29378L6.38428 9.29691ZM6.4124 8.99066C7.05247 8.99005 7.69137 9.04547 8.32178 9.15628L8.27803 9.23441C7.66366 9.12201 7.04008 9.06761 6.41553 9.0719C5.60615 9.0719 4.7499 9.13128 3.96865 9.35628C3.71865 9.43128 3.28115 9.58753 3.26865 9.71253L3.22803 9.64066C3.2374 9.52816 3.6124 9.37815 3.95303 9.27815C4.75543 9.06827 5.58322 8.97151 6.4124 8.99066Z" fill="#FFFF00" stroke="#383838" stroke-width="0.075" stroke-linecap="round" stroke-linejoin="round"/>
<path fill-rule="evenodd" clip-rule="evenodd" d="M9.5123 9.68428L9.2498 10.0905L8.49668 9.42178L6.54043 8.10928L4.3373 6.89678L3.19043 6.50615L3.43418 6.05303L3.51855 6.00928L4.23105 6.1874L6.5748 7.39678L7.92793 8.2499L9.0623 9.0624L9.5248 9.59678L9.5123 9.68428Z" fill="#FFFF00" stroke="#383838" stroke-width="0.0875" stroke-linecap="round" stroke-linejoin="round"/>
<path fill-rule="evenodd" clip-rule="evenodd" d="M3.14971 6.51572C3.35283 6.38135 4.82783 7.0376 6.36846 7.96885C7.90908 8.90322 9.38096 9.95635 9.24971 10.1563L9.20596 10.222L9.18408 10.2376C9.19033 10.2376 9.21221 10.2063 9.18408 10.1345C9.11533 9.91885 8.07471 9.0876 6.34033 8.04072C4.65283 7.03447 3.24658 6.42822 3.10596 6.60322L3.14971 6.51572ZM9.56533 9.67822C9.69033 9.42822 8.32471 8.39697 6.62783 7.39385C4.89346 6.40947 3.64033 5.83135 3.41221 6.00322L3.36221 6.09697C3.36221 6.1001 3.36221 6.09072 3.37471 6.08135C3.41533 6.04697 3.48408 6.0501 3.51533 6.0501C3.90908 6.05322 5.03408 6.56885 6.60908 7.4751C7.29971 7.8751 9.52783 9.30635 9.51846 9.70635C9.51846 9.74072 9.52158 9.74697 9.50908 9.76572L9.56533 9.67822Z" fill="#FFFF00" stroke="#383838" stroke-width="0.0875" stroke-linecap="round" stroke-linejoin="round"/>
<path d="M4.28711 8.38987C4.28764 8.66588 4.3429 8.93903 4.44971 9.19353C4.55651 9.44804 4.71273 9.67882 4.90933 9.87254C5.10353 10.0697 5.33484 10.2265 5.58991 10.3339C5.84499 10.4413 6.1188 10.4972 6.39556 10.4983C6.95568 10.4983 7.49285 10.2757 7.88889 9.87965C8.0848 9.68486 8.2403 9.4533 8.34647 9.19825C8.45264 8.9432 8.50738 8.66969 8.50756 8.39343V5.57742L4.28711 5.57031V8.38987Z" fill="white" stroke="#383838" stroke-width="0.0995558"/>
<path d="M4.37256 8.39327C4.37331 8.65803 4.42648 8.92001 4.529 9.16412C4.63153 9.40822 4.78137 9.6296 4.96989 9.81549C5.34844 10.196 5.86248 10.4108 6.39923 10.4128C6.93503 10.4131 7.44908 10.2009 7.82857 9.82261C8.01645 9.63642 8.16563 9.4149 8.26754 9.17081C8.36945 8.92673 8.42206 8.66489 8.42234 8.40038V5.6626H4.37256V8.39327ZM7.60812 6.48393V8.2226L7.60456 8.40394C7.60576 8.56278 7.57489 8.72023 7.5138 8.86686C7.4527 9.01348 7.36264 9.14627 7.24901 9.25727C7.0229 9.48416 6.71599 9.61204 6.39567 9.61283C6.06145 9.61283 5.76634 9.4706 5.54589 9.25016C5.319 9.02405 5.19112 8.71714 5.19034 8.39682V6.47682L7.60812 6.48393Z" fill="#FF0000" stroke="#383838" stroke-width="0.0711113"/>
<path d="M4.62842 6.37752C4.63197 6.18196 4.77064 6.13574 4.77064 6.13574C4.7742 6.13574 4.92353 6.18552 4.92353 6.38108L4.62842 6.37752Z" fill="#FFFF00"/>
<path d="M4.50757 6.1393L4.48268 6.3633H4.63202C4.63202 6.17841 4.77424 6.14996 4.77424 6.14996C4.7778 6.14996 4.91646 6.18908 4.92002 6.3633H5.06935L5.04091 6.13574L4.50757 6.1393ZM4.47202 6.36685H5.07646C5.08713 6.36685 5.0978 6.37752 5.0978 6.39174C5.0978 6.40952 5.08713 6.42019 5.07646 6.42019H4.47202C4.46135 6.42019 4.45068 6.40952 4.45068 6.39174C4.45068 6.37752 4.46135 6.36685 4.47557 6.36685H4.47202Z" fill="#FFFF00" stroke="#383838" stroke-width="0.0711113"/>
<path d="M4.6924 6.36342C4.6924 6.24609 4.77418 6.21409 4.77418 6.21409C4.77418 6.21409 4.85596 6.24964 4.85596 6.36342H4.6924ZM4.48618 6.04342H5.06573C5.0764 6.04342 5.08707 6.05764 5.08707 6.07186C5.08707 6.08253 5.0764 6.0932 5.06573 6.0932H4.48618C4.47551 6.0932 4.46484 6.08253 4.46484 6.06831C4.46484 6.05764 4.47551 6.04698 4.48618 6.04698V6.04342ZM4.5004 6.09675H5.04796C5.05862 6.09675 5.06929 6.10742 5.06929 6.12164C5.06929 6.13586 5.05862 6.14653 5.04796 6.14653H4.49684C4.48262 6.14653 4.47551 6.13586 4.47551 6.12164C4.47551 6.10742 4.48262 6.09675 4.49684 6.09675H4.5004ZM4.67818 5.71986H4.72084V5.74831H4.75284V5.71986H4.79907V5.75186H4.83107V5.71631H4.87373V5.78742C4.87373 5.80164 4.86662 5.80875 4.85596 5.80875H4.69951C4.68884 5.80875 4.67818 5.80164 4.67818 5.79098V5.71986ZM4.84173 5.81586L4.8524 6.04342H4.69951L4.71018 5.81231H4.84173" fill="#FFFF00"/>
<path d="M4.84173 5.81586L4.8524 6.04342H4.69951L4.71018 5.81231H4.84173M4.6924 6.36342C4.6924 6.24609 4.77418 6.21409 4.77418 6.21409C4.77418 6.21409 4.85596 6.24964 4.85596 6.36342H4.6924ZM4.48618 6.04342H5.06573C5.0764 6.04342 5.08707 6.05764 5.08707 6.07186C5.08707 6.08253 5.0764 6.0932 5.06573 6.0932H4.48618C4.47551 6.0932 4.46484 6.08253 4.46484 6.06831C4.46484 6.05764 4.47551 6.04698 4.48618 6.04698V6.04342ZM4.5004 6.09675H5.04796C5.05862 6.09675 5.06929 6.10742 5.06929 6.12164C5.06929 6.13586 5.05862 6.14653 5.04796 6.14653H4.49684C4.48262 6.14653 4.47551 6.13586 4.47551 6.12164C4.47551 6.10742 4.48262 6.09675 4.49684 6.09675H4.5004ZM4.67818 5.71986H4.72084V5.74831H4.75284V5.71986H4.79907V5.75186H4.83107V5.71631H4.87373V5.78742C4.87373 5.80164 4.86662 5.80875 4.85596 5.80875H4.69951C4.68884 5.80875 4.67818 5.80164 4.67818 5.79098V5.71986Z" stroke="#383838" stroke-width="0.0711113"/>
<path d="M4.65687 5.92236V6.04325H4.51465V5.92236H4.65687Z" fill="#FFFF00" stroke="#383838" stroke-width="0.0711113"/>
<path d="M5.03382 5.92236V6.04325H4.8916V5.92236H5.03382Z" fill="#FFFF00" stroke="#383838" stroke-width="0.0711113"/>
<path d="M4.48975 5.83008H4.53241V5.86563H4.56441V5.83008H4.60708V5.86563H4.63908V5.83008H4.68175V5.90119C4.68175 5.91541 4.67464 5.92252 4.66397 5.92252H4.51108C4.50542 5.92252 4.5 5.92028 4.49599 5.91627C4.49199 5.91227 4.48975 5.90685 4.48975 5.90119V5.83008Z" fill="#FFFF00" stroke="#383838" stroke-width="0.0711113"/>
<path d="M4.8667 5.83008H4.90937V5.86563H4.94137V5.83008H4.98403V5.86563H5.01603V5.83008H5.0587V5.90119C5.0587 5.91541 5.05159 5.92252 5.04092 5.92252H4.88803C4.88237 5.92252 4.87695 5.92028 4.87295 5.91627C4.86895 5.91227 4.8667 5.90685 4.8667 5.90119V5.83008Z" fill="#FFFF00" stroke="#383838" stroke-width="0.0711113"/>
<path d="M4.76025 5.88709C4.76025 5.86576 4.79225 5.86576 4.79225 5.88709V5.94398H4.76025V5.88709Z" fill="#000001"/>
<path d="M4.57178 5.96522C4.57178 5.94389 4.60022 5.94389 4.60022 5.96522V6.00789H4.57178V5.96522Z" fill="#000001"/>
<path d="M4.94824 5.96522C4.94824 5.94389 4.97669 5.94389 4.97669 5.96522V6.00789H4.94824V5.96522Z" fill="#000001"/>
<path d="M4.62842 8.02352C4.63197 7.82796 4.77064 7.78174 4.77064 7.78174C4.7742 7.78174 4.92353 7.83152 4.92353 8.02707L4.62842 8.02352Z" fill="#FFFF00"/>
<path d="M4.50757 7.78529L4.48268 8.00929H4.63202C4.63202 7.8244 4.77424 7.79596 4.77424 7.79596C4.7778 7.79596 4.91646 7.83507 4.92002 8.00929H5.06935L5.04091 7.78174L4.50757 7.78529ZM4.47202 8.01285H5.07646C5.08713 8.01285 5.0978 8.02352 5.0978 8.03774C5.0978 8.05552 5.08713 8.06618 5.07646 8.06618H4.47202C4.46135 8.06618 4.45068 8.05552 4.45068 8.03774C4.45068 8.02352 4.46135 8.01285 4.47557 8.01285H4.47202Z" fill="#FFFF00" stroke="#383838" stroke-width="0.0711113"/>
<path d="M4.6924 8.00942C4.6924 7.89208 4.77418 7.86008 4.77418 7.86008C4.77418 7.86008 4.85596 7.89564 4.85596 8.00942H4.6924ZM4.48618 7.68942H5.06573C5.0764 7.68942 5.08707 7.70364 5.08707 7.71786C5.08707 7.72853 5.0764 7.73919 5.06573 7.73919H4.48618C4.47551 7.73919 4.46484 7.72853 4.46484 7.71431C4.46484 7.70364 4.47551 7.69297 4.48618 7.69297V7.68942ZM4.5004 7.74275H5.04796C5.05862 7.74275 5.06929 7.75342 5.06929 7.76764C5.06929 7.78186 5.05862 7.79253 5.04796 7.79253H4.49684C4.48262 7.79253 4.47551 7.78186 4.47551 7.76764C4.47551 7.75342 4.48262 7.74275 4.49684 7.74275H4.5004ZM4.67818 7.36586H4.72084V7.3943H4.75284V7.36586H4.79907V7.39786H4.83107V7.3623H4.87373V7.43342C4.87373 7.44764 4.86662 7.45475 4.85596 7.45475H4.69951C4.68884 7.45475 4.67818 7.44764 4.67818 7.43697V7.36586ZM4.84173 7.46186L4.8524 7.68942H4.69951L4.71018 7.4583H4.84173" fill="#FFFF00"/>
<path d="M4.84173 7.46186L4.8524 7.68942H4.69951L4.71018 7.4583H4.84173M4.6924 8.00942C4.6924 7.89208 4.77418 7.86008 4.77418 7.86008C4.77418 7.86008 4.85596 7.89564 4.85596 8.00942H4.6924ZM4.48618 7.68942H5.06573C5.0764 7.68942 5.08707 7.70364 5.08707 7.71786C5.08707 7.72853 5.0764 7.73919 5.06573 7.73919H4.48618C4.47551 7.73919 4.46484 7.72853 4.46484 7.71431C4.46484 7.70364 4.47551 7.69297 4.48618 7.69297V7.68942ZM4.5004 7.74275H5.04796C5.05862 7.74275 5.06929 7.75342 5.06929 7.76764C5.06929 7.78186 5.05862 7.79253 5.04796 7.79253H4.49684C4.48262 7.79253 4.47551 7.78186 4.47551 7.76764C4.47551 7.75342 4.48262 7.74275 4.49684 7.74275H4.5004ZM4.67818 7.36586H4.72084V7.3943H4.75284V7.36586H4.79907V7.39786H4.83107V7.3623H4.87373V7.43342C4.87373 7.44764 4.86662 7.45475 4.85596 7.45475H4.69951C4.68884 7.45475 4.67818 7.44764 4.67818 7.43697V7.36586Z" stroke="#383838" stroke-width="0.0711113"/>
<path d="M4.65687 7.56836V7.68925H4.51465V7.56836H4.65687Z" fill="#FFFF00" stroke="#383838" stroke-width="0.0711113"/>
<path d="M5.03382 7.56836V7.68925H4.8916V7.56836H5.03382Z" fill="#FFFF00" stroke="#383838" stroke-width="0.0711113"/>
<path d="M4.48975 7.47607H4.53241V7.51163H4.56441V7.47607H4.60708V7.51163H4.63908V7.47607H4.68175V7.54719C4.68175 7.56141 4.67464 7.56852 4.66397 7.56852H4.51108C4.50542 7.56852 4.5 7.56627 4.49599 7.56227C4.49199 7.55827 4.48975 7.55284 4.48975 7.54719V7.47607Z" fill="#FFFF00" stroke="#383838" stroke-width="0.0711113"/>
<path d="M4.8667 7.47607H4.90937V7.51163H4.94137V7.47607H4.98403V7.51163H5.01603V7.47607H5.0587V7.54719C5.0587 7.56141 5.05159 7.56852 5.04092 7.56852H4.88803C4.88237 7.56852 4.87695 7.56627 4.87295 7.56227C4.86895 7.55827 4.8667 7.55284 4.8667 7.54719V7.47607Z" fill="#FFFF00" stroke="#383838" stroke-width="0.0711113"/>
<path d="M4.76025 7.53309C4.76025 7.51176 4.79225 7.51176 4.79225 7.53309V7.58998H4.76025V7.53309Z" fill="#000001"/>
<path d="M4.57178 7.61121C4.57178 7.58988 4.60022 7.58988 4.60022 7.61121V7.65388H4.57178V7.61121Z" fill="#000001"/>
<path d="M4.94824 7.61121C4.94824 7.58988 4.97669 7.58988 4.97669 7.61121V7.65388H4.94824V7.61121Z" fill="#000001"/>
<path d="M5.27019 9.7397C5.13394 9.59938 5.19885 9.46842 5.19885 9.46842C5.20135 9.4659 5.3419 9.39501 5.48066 9.5328L5.27019 9.7397Z" fill="#FFFF00"/>
<path d="M5.01624 9.65745L5.15765 9.83295L5.26287 9.72699C5.13168 9.59671 5.21171 9.47575 5.21171 9.47575C5.21422 9.47322 5.33968 9.40239 5.46581 9.52263L5.57103 9.41667L5.38952 9.27651L5.01624 9.65745ZM5.15266 9.84302L5.57857 9.41413C5.58608 9.40656 5.60117 9.40651 5.61126 9.41653C5.62388 9.42905 5.62393 9.44414 5.61641 9.45171L5.1905 9.8806C5.18298 9.88817 5.1679 9.88823 5.15528 9.8757C5.14519 9.86568 5.14514 9.85059 5.15516 9.8405L5.15266 9.84302Z" fill="#FFFF00" stroke="#383838" stroke-width="0.0711113"/>
<path d="M5.30555 9.68416C5.22229 9.60148 5.25721 9.52091 5.25721 9.52091C5.25721 9.52091 5.34006 9.48793 5.4208 9.5681L5.30555 9.68416ZM4.93318 9.60501L5.34155 9.19377C5.34907 9.1862 5.36668 9.18865 5.37677 9.19867C5.38434 9.20619 5.38439 9.22127 5.37687 9.22884L4.9685 9.64008C4.96098 9.64765 4.9459 9.6477 4.9358 9.63768C4.92824 9.63016 4.92818 9.61508 4.9357 9.60751L4.93318 9.60501ZM4.98104 9.63249L5.36687 9.24396C5.37438 9.2364 5.38947 9.23634 5.39956 9.24636C5.40965 9.25639 5.40971 9.27147 5.40219 9.27904L5.01386 9.67009C5.00384 9.68018 4.99126 9.67771 4.98116 9.66769C4.97107 9.65767 4.96851 9.64511 4.97854 9.63502L4.98104 9.63249ZM4.83888 9.24078L4.86894 9.2105L4.88913 9.23055L4.91168 9.20784L4.89149 9.1878L4.92406 9.155L4.94677 9.17755L4.96932 9.15484L4.94409 9.12979L4.97415 9.09951L5.02461 9.14962C5.0347 9.15964 5.03474 9.1697 5.02722 9.17727L4.91699 9.28828C4.90947 9.29584 4.89691 9.2984 4.88934 9.29089L4.83888 9.24078ZM5.02225 9.19237L5.19123 9.34514L5.0835 9.45363L4.92702 9.28321L5.01972 9.18986" fill="#FFFF00"/>
<path d="M5.02225 9.19237L5.19123 9.34514L5.0835 9.45363L4.92702 9.28321L5.01972 9.18986M5.30555 9.68416C5.22229 9.60148 5.25721 9.52091 5.25721 9.52091C5.25721 9.52091 5.34006 9.48793 5.4208 9.5681L5.30555 9.68416ZM4.93318 9.60501L5.34155 9.19377C5.34907 9.1862 5.36668 9.18865 5.37677 9.19867C5.38434 9.20619 5.38439 9.22127 5.37687 9.22884L4.9685 9.64008C4.96098 9.64765 4.9459 9.6477 4.9358 9.63768C4.92824 9.63016 4.92818 9.61508 4.9357 9.60751L4.93318 9.60501ZM4.98104 9.63249L5.36687 9.24396C5.37438 9.2364 5.38947 9.23634 5.39956 9.24636C5.40965 9.25639 5.40971 9.27147 5.40219 9.27904L5.01386 9.67009C5.00384 9.68018 4.99126 9.67771 4.98116 9.66769C4.97107 9.65767 4.96851 9.64511 4.97854 9.63502L4.98104 9.63249ZM4.83888 9.24078L4.86894 9.2105L4.88913 9.23055L4.91168 9.20784L4.89149 9.1878L4.92406 9.155L4.94677 9.17755L4.96932 9.15484L4.94409 9.12979L4.97415 9.09951L5.02461 9.14962C5.0347 9.15964 5.03474 9.1697 5.02722 9.17727L4.91699 9.28828C4.90947 9.29584 4.89691 9.2984 4.88934 9.29089L4.83888 9.24078Z" stroke="#383838" stroke-width="0.0711113"/>
<path d="M4.9674 9.39908L5.05318 9.48427L4.95297 9.58518L4.86719 9.5L4.9674 9.39908Z" fill="#FFFF00" stroke="#383838" stroke-width="0.0711113"/>
<path d="M5.23303 9.1315L5.31881 9.21669L5.21859 9.3176L5.13281 9.23242L5.23303 9.1315Z" fill="#FFFF00" stroke="#383838" stroke-width="0.0711113"/>
<path d="M4.78418 9.45215L4.81424 9.42187L4.83947 9.44693L4.86202 9.42422L4.83679 9.39917L4.86686 9.36889L4.89209 9.39395L4.91463 9.37124L4.88941 9.34619L4.91947 9.31591L4.96993 9.36602C4.98002 9.37604 4.98005 9.3861 4.97254 9.39367L4.86481 9.50215C4.86082 9.50617 4.8554 9.50843 4.84975 9.50845C4.84409 9.50847 4.83865 9.50624 4.83464 9.50226L4.78418 9.45215Z" fill="#FFFF00" stroke="#383838" stroke-width="0.0711113"/>
<path d="M5.0498 9.18506L5.07987 9.15478L5.1051 9.17984L5.12765 9.15713L5.10242 9.13208L5.13248 9.1018L5.15771 9.12686L5.18026 9.10415L5.15503 9.0791L5.18509 9.04882L5.23555 9.09893C5.24564 9.10895 5.24568 9.11901 5.23816 9.12658L5.13043 9.23506C5.12645 9.23908 5.12103 9.24134 5.11537 9.24136C5.10971 9.24138 5.10428 9.23915 5.10026 9.23517L5.0498 9.18506Z" fill="#FFFF00" stroke="#383838" stroke-width="0.0711113"/>
<path d="M5.01477 9.30082C4.99963 9.28579 5.02218 9.26309 5.03732 9.27812L5.07769 9.3182L5.05514 9.34091L5.01477 9.30082Z" fill="#000001"/>
<path d="M4.93762 9.4893C4.92249 9.47427 4.94253 9.45409 4.95767 9.46912L4.98794 9.49918L4.9679 9.51937L4.93762 9.4893Z" fill="#000001"/>
<path d="M5.20325 9.22221C5.18811 9.20718 5.20815 9.187 5.22329 9.20203L5.25357 9.23209L5.23352 9.25228L5.20325 9.22221Z" fill="#000001"/>
<path d="M6.25342 6.37752C6.25697 6.18196 6.39564 6.13574 6.39564 6.13574C6.3992 6.13574 6.54853 6.18552 6.54853 6.38108L6.25342 6.37752Z" fill="#FFFF00"/>
<path d="M6.13257 6.1393L6.10768 6.3633H6.25702C6.25702 6.17841 6.39924 6.14996 6.39924 6.14996C6.4028 6.14996 6.54146 6.18908 6.54502 6.3633H6.69435L6.66591 6.13574L6.13257 6.1393ZM6.09702 6.36685H6.70146C6.71213 6.36685 6.7228 6.37752 6.7228 6.39174C6.7228 6.40952 6.71213 6.42019 6.70146 6.42019H6.09702C6.08635 6.42019 6.07568 6.40952 6.07568 6.39174C6.07568 6.37752 6.08635 6.36685 6.10057 6.36685H6.09702Z" fill="#FFFF00" stroke="#383838" stroke-width="0.0711113"/>
<path d="M6.3174 6.36342C6.3174 6.24609 6.39918 6.21409 6.39918 6.21409C6.39918 6.21409 6.48096 6.24964 6.48096 6.36342H6.3174ZM6.11118 6.04342H6.69073C6.7014 6.04342 6.71207 6.05764 6.71207 6.07186C6.71207 6.08253 6.7014 6.0932 6.69073 6.0932H6.11118C6.10051 6.0932 6.08984 6.08253 6.08984 6.06831C6.08984 6.05764 6.10051 6.04698 6.11118 6.04698V6.04342ZM6.1254 6.09675H6.67296C6.68362 6.09675 6.69429 6.10742 6.69429 6.12164C6.69429 6.13586 6.68362 6.14653 6.67296 6.14653H6.12184C6.10762 6.14653 6.10051 6.13586 6.10051 6.12164C6.10051 6.10742 6.10762 6.09675 6.12184 6.09675H6.1254ZM6.30318 5.71986H6.34584V5.74831H6.37784V5.71986H6.42407V5.75186H6.45607V5.71631H6.49873V5.78742C6.49873 5.80164 6.49162 5.80875 6.48096 5.80875H6.32451C6.31384 5.80875 6.30318 5.80164 6.30318 5.79098V5.71986ZM6.46673 5.81586L6.4774 6.04342H6.32451L6.33518 5.81231H6.46673" fill="#FFFF00"/>
<path d="M6.46673 5.81586L6.4774 6.04342H6.32451L6.33518 5.81231H6.46673M6.3174 6.36342C6.3174 6.24609 6.39918 6.21409 6.39918 6.21409C6.39918 6.21409 6.48096 6.24964 6.48096 6.36342H6.3174ZM6.11118 6.04342H6.69073C6.7014 6.04342 6.71207 6.05764 6.71207 6.07186C6.71207 6.08253 6.7014 6.0932 6.69073 6.0932H6.11118C6.10051 6.0932 6.08984 6.08253 6.08984 6.06831C6.08984 6.05764 6.10051 6.04698 6.11118 6.04698V6.04342ZM6.1254 6.09675H6.67296C6.68362 6.09675 6.69429 6.10742 6.69429 6.12164C6.69429 6.13586 6.68362 6.14653 6.67296 6.14653H6.12184C6.10762 6.14653 6.10051 6.13586 6.10051 6.12164C6.10051 6.10742 6.10762 6.09675 6.12184 6.09675H6.1254ZM6.30318 5.71986H6.34584V5.74831H6.37784V5.71986H6.42407V5.75186H6.45607V5.71631H6.49873V5.78742C6.49873 5.80164 6.49162 5.80875 6.48096 5.80875H6.32451C6.31384 5.80875 6.30318 5.80164 6.30318 5.79098V5.71986Z" stroke="#383838" stroke-width="0.0711113"/>
<path d="M6.28187 5.92236V6.04325H6.13965V5.92236H6.28187Z" fill="#FFFF00" stroke="#383838" stroke-width="0.0711113"/>
<path d="M6.65882 5.92236V6.04325H6.5166V5.92236H6.65882Z" fill="#FFFF00" stroke="#383838" stroke-width="0.0711113"/>
<path d="M6.11475 5.83008H6.15741V5.86563H6.18941V5.83008H6.23208V5.86563H6.26408V5.83008H6.30675V5.90119C6.30675 5.91541 6.29964 5.92252 6.28897 5.92252H6.13608C6.13042 5.92252 6.125 5.92028 6.12099 5.91627C6.11699 5.91227 6.11475 5.90685 6.11475 5.90119V5.83008Z" fill="#FFFF00" stroke="#383838" stroke-width="0.0711113"/>
<path d="M6.4917 5.83008H6.53437V5.86563H6.56637V5.83008H6.60903V5.86563H6.64103V5.83008H6.6837V5.90119C6.6837 5.91541 6.67659 5.92252 6.66592 5.92252H6.51303C6.50737 5.92252 6.50195 5.92028 6.49795 5.91627C6.49395 5.91227 6.4917 5.90685 6.4917 5.90119V5.83008Z" fill="#FFFF00" stroke="#383838" stroke-width="0.0711113"/>
<path d="M6.38525 5.88709C6.38525 5.86576 6.41725 5.86576 6.41725 5.88709V5.94398H6.38525V5.88709Z" fill="#000001"/>
<path d="M6.19678 5.96522C6.19678 5.94389 6.22522 5.94389 6.22522 5.96522V6.00789H6.19678V5.96522Z" fill="#000001"/>
<path d="M6.57324 5.96522C6.57324 5.94389 6.60169 5.94389 6.60169 5.96522V6.00789H6.57324V5.96522Z" fill="#000001"/>
<path d="M8.1626 6.37752C8.15904 6.18196 8.02038 6.13574 8.02038 6.13574C8.01682 6.13574 7.86749 6.18552 7.86749 6.38108L8.1626 6.37752Z" fill="#FFFF00"/>
<path d="M8.28344 6.1393L8.30833 6.3633H8.159C8.159 6.17841 8.01678 6.14996 8.01678 6.14996C8.01322 6.14996 7.87455 6.18908 7.871 6.3633H7.72166L7.75011 6.13574L8.28344 6.1393ZM8.319 6.36685H7.71455C7.70389 6.36685 7.69322 6.37752 7.69322 6.39174C7.69322 6.40952 7.70389 6.42019 7.71455 6.42019H8.319C8.32967 6.42019 8.34033 6.40952 8.34033 6.39174C8.34033 6.37752 8.32967 6.36685 8.31544 6.36685H8.319Z" fill="#FFFF00" stroke="#383838" stroke-width="0.0711113"/>
<path d="M8.09862 6.36342C8.09862 6.24609 8.01684 6.21409 8.01684 6.21409C8.01684 6.21409 7.93506 6.24964 7.93506 6.36342H8.09862ZM8.30484 6.04342H7.72528C7.71462 6.04342 7.70395 6.05764 7.70395 6.07186C7.70395 6.08253 7.71462 6.0932 7.72528 6.0932H8.30484C8.31551 6.0932 8.32617 6.08253 8.32617 6.06831C8.32617 6.05764 8.31551 6.04698 8.30484 6.04698V6.04342ZM8.29062 6.09675H7.74306C7.73239 6.09675 7.72173 6.10742 7.72173 6.12164C7.72173 6.13586 7.73239 6.14653 7.74306 6.14653H8.29417C8.30839 6.14653 8.31551 6.13586 8.31551 6.12164C8.31551 6.10742 8.30839 6.09675 8.29417 6.09675H8.29062ZM8.11284 5.71986H8.07017V5.74831H8.03817V5.71986H7.99195V5.75186H7.95995V5.71631H7.91728V5.78742C7.91728 5.80164 7.92439 5.80875 7.93506 5.80875H8.09151C8.10217 5.80875 8.11284 5.80164 8.11284 5.79098V5.71986ZM7.94928 5.81586L7.93862 6.04342H8.09151L8.08084 5.81231H7.94928" fill="#FFFF00"/>
<path d="M7.94928 5.81586L7.93862 6.04342H8.09151L8.08084 5.81231H7.94928M8.09862 6.36342C8.09862 6.24609 8.01684 6.21409 8.01684 6.21409C8.01684 6.21409 7.93506 6.24964 7.93506 6.36342H8.09862ZM8.30484 6.04342H7.72528C7.71462 6.04342 7.70395 6.05764 7.70395 6.07186C7.70395 6.08253 7.71462 6.0932 7.72528 6.0932H8.30484C8.31551 6.0932 8.32617 6.08253 8.32617 6.06831C8.32617 6.05764 8.31551 6.04698 8.30484 6.04698V6.04342ZM8.29062 6.09675H7.74306C7.73239 6.09675 7.72173 6.10742 7.72173 6.12164C7.72173 6.13586 7.73239 6.14653 7.74306 6.14653H8.29417C8.30839 6.14653 8.31551 6.13586 8.31551 6.12164C8.31551 6.10742 8.30839 6.09675 8.29417 6.09675H8.29062ZM8.11284 5.71986H8.07017V5.74831H8.03817V5.71986H7.99195V5.75186H7.95995V5.71631H7.91728V5.78742C7.91728 5.80164 7.92439 5.80875 7.93506 5.80875H8.09151C8.10217 5.80875 8.11284 5.80164 8.11284 5.79098V5.71986Z" stroke="#383838" stroke-width="0.0711113"/>
<path d="M8.13414 5.92236V6.04325H8.27637V5.92236H8.13414Z" fill="#FFFF00" stroke="#383838" stroke-width="0.0711113"/>
<path d="M7.75719 5.92236V6.04325H7.89941V5.92236H7.75719Z" fill="#FFFF00" stroke="#383838" stroke-width="0.0711113"/>
<path d="M8.30127 5.83008H8.2586V5.86563H8.2266V5.83008H8.18394V5.86563H8.15194V5.83008H8.10927V5.90119C8.10927 5.91541 8.11638 5.92252 8.12705 5.92252H8.27994C8.28559 5.92252 8.29102 5.92028 8.29502 5.91627C8.29902 5.91227 8.30127 5.90685 8.30127 5.90119V5.83008Z" fill="#FFFF00" stroke="#383838" stroke-width="0.0711113"/>
<path d="M7.92432 5.83008H7.88165V5.86563H7.84965V5.83008H7.80698V5.86563H7.77498V5.83008H7.73232V5.90119C7.73232 5.91541 7.73943 5.92252 7.75009 5.92252H7.90298C7.90864 5.92252 7.91407 5.92028 7.91807 5.91627C7.92207 5.91227 7.92432 5.90685 7.92432 5.90119V5.83008Z" fill="#FFFF00" stroke="#383838" stroke-width="0.0711113"/>
<path d="M8.03076 5.88709C8.03076 5.86576 7.99876 5.86576 7.99876 5.88709V5.94398H8.03076V5.88709Z" fill="#000001"/>
<path d="M8.21924 5.96522C8.21924 5.94389 8.19079 5.94389 8.19079 5.96522V6.00789H8.21924V5.96522Z" fill="#000001"/>
<path d="M7.84277 5.96522C7.84277 5.94389 7.81433 5.94389 7.81433 5.96522V6.00789H7.84277V5.96522Z" fill="#000001"/>
<path d="M8.1626 8.02352C8.15904 7.82796 8.02038 7.78174 8.02038 7.78174C8.01682 7.78174 7.86749 7.83152 7.86749 8.02707L8.1626 8.02352Z" fill="#FFFF00"/>
<path d="M8.28344 7.78529L8.30833 8.00929H8.159C8.159 7.8244 8.01678 7.79596 8.01678 7.79596C8.01322 7.79596 7.87455 7.83507 7.871 8.00929H7.72166L7.75011 7.78174L8.28344 7.78529ZM8.319 8.01285H7.71455C7.70389 8.01285 7.69322 8.02352 7.69322 8.03774C7.69322 8.05552 7.70389 8.06618 7.71455 8.06618H8.319C8.32967 8.06618 8.34033 8.05552 8.34033 8.03774C8.34033 8.02352 8.32967 8.01285 8.31544 8.01285H8.319Z" fill="#FFFF00" stroke="#383838" stroke-width="0.0711113"/>
<path d="M8.09862 8.00942C8.09862 7.89208 8.01684 7.86008 8.01684 7.86008C8.01684 7.86008 7.93506 7.89564 7.93506 8.00942H8.09862ZM8.30484 7.68942H7.72528C7.71462 7.68942 7.70395 7.70364 7.70395 7.71786C7.70395 7.72853 7.71462 7.73919 7.72528 7.73919H8.30484C8.31551 7.73919 8.32617 7.72853 8.32617 7.71431C8.32617 7.70364 8.31551 7.69297 8.30484 7.69297V7.68942ZM8.29062 7.74275H7.74306C7.73239 7.74275 7.72173 7.75342 7.72173 7.76764C7.72173 7.78186 7.73239 7.79253 7.74306 7.79253H8.29417C8.30839 7.79253 8.31551 7.78186 8.31551 7.76764C8.31551 7.75342 8.30839 7.74275 8.29417 7.74275H8.29062ZM8.11284 7.36586H8.07017V7.3943H8.03817V7.36586H7.99195V7.39786H7.95995V7.3623H7.91728V7.43342C7.91728 7.44764 7.92439 7.45475 7.93506 7.45475H8.09151C8.10217 7.45475 8.11284 7.44764 8.11284 7.43697V7.36586ZM7.94928 7.46186L7.93862 7.68942H8.09151L8.08084 7.4583H7.94928" fill="#FFFF00"/>
<path d="M7.94928 7.46186L7.93862 7.68942H8.09151L8.08084 7.4583H7.94928M8.09862 8.00942C8.09862 7.89208 8.01684 7.86008 8.01684 7.86008C8.01684 7.86008 7.93506 7.89564 7.93506 8.00942H8.09862ZM8.30484 7.68942H7.72528C7.71462 7.68942 7.70395 7.70364 7.70395 7.71786C7.70395 7.72853 7.71462 7.73919 7.72528 7.73919H8.30484C8.31551 7.73919 8.32617 7.72853 8.32617 7.71431C8.32617 7.70364 8.31551 7.69297 8.30484 7.69297V7.68942ZM8.29062 7.74275H7.74306C7.73239 7.74275 7.72173 7.75342 7.72173 7.76764C7.72173 7.78186 7.73239 7.79253 7.74306 7.79253H8.29417C8.30839 7.79253 8.31551 7.78186 8.31551 7.76764C8.31551 7.75342 8.30839 7.74275 8.29417 7.74275H8.29062ZM8.11284 7.36586H8.07017V7.3943H8.03817V7.36586H7.99195V7.39786H7.95995V7.3623H7.91728V7.43342C7.91728 7.44764 7.92439 7.45475 7.93506 7.45475H8.09151C8.10217 7.45475 8.11284 7.44764 8.11284 7.43697V7.36586Z" stroke="#383838" stroke-width="0.0711113"/>
<path d="M8.13414 7.56836V7.68925H8.27637V7.56836H8.13414Z" fill="#FFFF00" stroke="#383838" stroke-width="0.0711113"/>
<path d="M7.75719 7.56836V7.68925H7.89941V7.56836H7.75719Z" fill="#FFFF00" stroke="#383838" stroke-width="0.0711113"/>
<path d="M8.30127 7.47607H8.2586V7.51163H8.2266V7.47607H8.18394V7.51163H8.15194V7.47607H8.10927V7.54719C8.10927 7.56141 8.11638 7.56852 8.12705 7.56852H8.27994C8.28559 7.56852 8.29102 7.56627 8.29502 7.56227C8.29902 7.55827 8.30127 7.55284 8.30127 7.54719V7.47607Z" fill="#FFFF00" stroke="#383838" stroke-width="0.0711113"/>
<path d="M7.92432 7.47607H7.88165V7.51163H7.84965V7.47607H7.80698V7.51163H7.77498V7.47607H7.73232V7.54719C7.73232 7.56141 7.73943 7.56852 7.75009 7.56852H7.90298C7.90864 7.56852 7.91407 7.56627 7.91807 7.56227C7.92207 7.55827 7.92432 7.55284 7.92432 7.54719V7.47607Z" fill="#FFFF00" stroke="#383838" stroke-width="0.0711113"/>
<path d="M8.03076 7.53309C8.03076 7.51176 7.99876 7.51176 7.99876 7.53309V7.58998H8.03076V7.53309Z" fill="#000001"/>
<path d="M8.21924 7.61121C8.21924 7.58988 8.19079 7.58988 8.19079 7.61121V7.65388H8.21924V7.61121Z" fill="#000001"/>
<path d="M7.84277 7.61121C7.84277 7.58988 7.81433 7.58988 7.81433 7.61121V7.65388H7.84277V7.61121Z" fill="#000001"/>
<path d="M7.52082 9.7397C7.65708 9.59938 7.59217 9.46842 7.59217 9.46842C7.58966 9.4659 7.44912 9.39501 7.31036 9.5328L7.52082 9.7397Z" fill="#FFFF00"/>
<path d="M7.77477 9.65745L7.63337 9.83295L7.52814 9.72699C7.65933 9.59671 7.5793 9.47575 7.5793 9.47575C7.5768 9.47322 7.45134 9.40239 7.32521 9.52263L7.21998 9.41667L7.40149 9.27651L7.77477 9.65745ZM7.63836 9.84302L7.21245 9.41413C7.20493 9.40656 7.18985 9.40651 7.17976 9.41653C7.16714 9.42905 7.16709 9.44414 7.1746 9.45171L7.60052 9.8806C7.60803 9.88817 7.62312 9.88823 7.63573 9.8757C7.64582 9.86568 7.64588 9.85059 7.63586 9.8405L7.63836 9.84302Z" fill="#FFFF00" stroke="#383838" stroke-width="0.0711113"/>
<path d="M7.48546 9.68416C7.56872 9.60148 7.5338 9.52091 7.5338 9.52091C7.5338 9.52091 7.45095 9.48793 7.37022 9.5681L7.48546 9.68416ZM7.85784 9.60501L7.44946 9.19377C7.44195 9.1862 7.42434 9.18865 7.41425 9.19867C7.40668 9.20619 7.40663 9.22127 7.41414 9.22884L7.82252 9.64008C7.83003 9.64765 7.84512 9.6477 7.85521 9.63768C7.86278 9.63016 7.86283 9.61508 7.85532 9.60751L7.85784 9.60501ZM7.80997 9.63249L7.42415 9.24396C7.41663 9.2364 7.40155 9.23634 7.39145 9.24636C7.38136 9.25639 7.38131 9.27147 7.38883 9.27904L7.77716 9.67009C7.78718 9.68018 7.79976 9.67771 7.80985 9.66769C7.81994 9.65767 7.8225 9.64511 7.81248 9.63502L7.80997 9.63249ZM7.95214 9.24078L7.92207 9.2105L7.90189 9.23055L7.87934 9.20784L7.89952 9.1878L7.86695 9.155L7.84425 9.17755L7.8217 9.15484L7.84693 9.12979L7.81686 9.09951L7.7664 9.14962C7.75631 9.15964 7.75628 9.1697 7.76379 9.17727L7.87403 9.28828C7.88155 9.29584 7.89411 9.2984 7.90168 9.29089L7.95214 9.24078ZM7.76877 9.19237L7.59979 9.34514L7.70752 9.45363L7.86399 9.28321L7.77129 9.18986" fill="#FFFF00"/>
<path d="M7.76877 9.19237L7.59979 9.34514L7.70752 9.45363L7.86399 9.28321L7.77129 9.18986M7.48546 9.68416C7.56872 9.60148 7.5338 9.52091 7.5338 9.52091C7.5338 9.52091 7.45095 9.48793 7.37022 9.5681L7.48546 9.68416ZM7.85784 9.60501L7.44946 9.19377C7.44195 9.1862 7.42434 9.18865 7.41425 9.19867C7.40668 9.20619 7.40663 9.22127 7.41414 9.22884L7.82252 9.64008C7.83003 9.64765 7.84512 9.6477 7.85521 9.63768C7.86278 9.63016 7.86283 9.61508 7.85532 9.60751L7.85784 9.60501ZM7.80997 9.63249L7.42415 9.24396C7.41663 9.2364 7.40155 9.23634 7.39145 9.24636C7.38136 9.25639 7.38131 9.27147 7.38883 9.27904L7.77716 9.67009C7.78718 9.68018 7.79976 9.67771 7.80985 9.66769C7.81994 9.65767 7.8225 9.64511 7.81248 9.63502L7.80997 9.63249ZM7.95214 9.24078L7.92207 9.2105L7.90189 9.23055L7.87934 9.20784L7.89952 9.1878L7.86695 9.155L7.84425 9.17755L7.8217 9.15484L7.84693 9.12979L7.81686 9.09951L7.7664 9.14962C7.75631 9.15964 7.75628 9.1697 7.76379 9.17727L7.87403 9.28828C7.88155 9.29584 7.89411 9.2984 7.90168 9.29089L7.95214 9.24078Z" stroke="#383838" stroke-width="0.0711113"/>
<path d="M7.82361 9.39908L7.73783 9.48427L7.83805 9.58518L7.92383 9.5L7.82361 9.39908Z" fill="#FFFF00" stroke="#383838" stroke-width="0.0711113"/>
<path d="M7.55799 9.1315L7.47221 9.21669L7.57242 9.3176L7.6582 9.23242L7.55799 9.1315Z" fill="#FFFF00" stroke="#383838" stroke-width="0.0711113"/>
<path d="M8.00684 9.45215L7.97677 9.42187L7.95154 9.44693L7.92899 9.42422L7.95422 9.39917L7.92416 9.36889L7.89893 9.39395L7.87638 9.37124L7.90161 9.34619L7.87155 9.31591L7.82109 9.36602C7.811 9.37604 7.81096 9.3861 7.81848 9.39367L7.92621 9.50215C7.93019 9.50617 7.93561 9.50843 7.94127 9.50845C7.94693 9.50847 7.95236 9.50624 7.95638 9.50226L8.00684 9.45215Z" fill="#FFFF00" stroke="#383838" stroke-width="0.0711113"/>
<path d="M7.74121 9.18506L7.71115 9.15478L7.68592 9.17984L7.66337 9.15713L7.6886 9.13208L7.65853 9.1018L7.6333 9.12686L7.61076 9.10415L7.63599 9.0791L7.60592 9.04882L7.55546 9.09893C7.54537 9.10895 7.54534 9.11901 7.55285 9.12658L7.66058 9.23506C7.66457 9.23908 7.66999 9.24134 7.67565 9.24136C7.6813 9.24138 7.68674 9.23915 7.69075 9.23517L7.74121 9.18506Z" fill="#FFFF00" stroke="#383838" stroke-width="0.0711113"/>
<path d="M7.77624 9.30082C7.79138 9.28579 7.76883 9.26309 7.7537 9.27812L7.71333 9.3182L7.73588 9.34091L7.77624 9.30082Z" fill="#000001"/>
<path d="M7.85339 9.4893C7.86853 9.47427 7.84849 9.45409 7.83335 9.46912L7.80308 9.49918L7.82312 9.51937L7.85339 9.4893Z" fill="#000001"/>
<path d="M7.58777 9.22221C7.60291 9.20718 7.58286 9.187 7.56773 9.20203L7.53745 9.23209L7.55749 9.25228L7.58777 9.22221Z" fill="#000001"/>
<path d="M6.13624 8.0842C6.1356 8.15924 6.16357 8.23171 6.21446 8.28686C6.23821 8.31341 6.26723 8.33472 6.29968 8.34941C6.33213 8.36411 6.36729 8.37187 6.40291 8.3722C6.47758 8.3722 6.54513 8.33664 6.59135 8.28686C6.64225 8.23171 6.67022 8.15924 6.66958 8.0842V7.7002H6.13624V8.0842Z" fill="#003399"/>
<path d="M6.26085 7.89915C6.29031 7.89915 6.31419 7.87527 6.31419 7.84581C6.31419 7.81636 6.29031 7.79248 6.26085 7.79248C6.2314 7.79248 6.20752 7.81636 6.20752 7.84581C6.20752 7.87527 6.2314 7.89915 6.26085 7.89915Z" fill="white"/>
<path d="M6.55577 7.89915C6.58523 7.89915 6.60911 7.87527 6.60911 7.84581C6.60911 7.81636 6.58523 7.79248 6.55577 7.79248C6.52632 7.79248 6.50244 7.81636 6.50244 7.84581C6.50244 7.87527 6.52632 7.89915 6.55577 7.89915Z" fill="white"/>
<path d="M6.40636 8.04173C6.43582 8.04173 6.45969 8.01785 6.45969 7.98839C6.45969 7.95894 6.43582 7.93506 6.40636 7.93506C6.37691 7.93506 6.35303 7.95894 6.35303 7.98839C6.35303 8.01785 6.37691 8.04173 6.40636 8.04173Z" fill="white"/>
<path d="M6.26085 8.19065C6.29031 8.19065 6.31419 8.16677 6.31419 8.13732C6.31419 8.10786 6.29031 8.08398 6.26085 8.08398C6.2314 8.08398 6.20752 8.10786 6.20752 8.13732C6.20752 8.16677 6.2314 8.19065 6.26085 8.19065Z" fill="white"/>
<path d="M6.55577 8.19065C6.58523 8.19065 6.60911 8.16677 6.60911 8.13732C6.60911 8.10786 6.58523 8.08398 6.55577 8.08398C6.52632 8.08398 6.50244 8.10786 6.50244 8.13732C6.50244 8.16677 6.52632 8.19065 6.55577 8.19065Z" fill="white"/>
<path d="M6.13624 7.15988C6.1356 7.23492 6.16357 7.30739 6.21446 7.36255C6.23821 7.3891 6.26723 7.4104 6.29968 7.4251C6.33213 7.43979 6.36729 7.44755 6.40291 7.44788C6.47758 7.44788 6.54513 7.41232 6.59135 7.36255C6.64225 7.30739 6.67022 7.23492 6.66958 7.15988V6.77588H6.13624V7.15988Z" fill="#003399"/>
<path d="M6.26085 6.97483C6.29031 6.97483 6.31419 6.95095 6.31419 6.9215C6.31419 6.89204 6.29031 6.86816 6.26085 6.86816C6.2314 6.86816 6.20752 6.89204 6.20752 6.9215C6.20752 6.95095 6.2314 6.97483 6.26085 6.97483Z" fill="white"/>
<path d="M6.55577 6.97483C6.58523 6.97483 6.60911 6.95095 6.60911 6.9215C6.60911 6.89204 6.58523 6.86816 6.55577 6.86816C6.52632 6.86816 6.50244 6.89204 6.50244 6.9215C6.50244 6.95095 6.52632 6.97483 6.55577 6.97483Z" fill="white"/>
<path d="M6.40636 7.11741C6.43582 7.11741 6.45969 7.09353 6.45969 7.06408C6.45969 7.03462 6.43582 7.01074 6.40636 7.01074C6.37691 7.01074 6.35303 7.03462 6.35303 7.06408C6.35303 7.09353 6.37691 7.11741 6.40636 7.11741Z" fill="white"/>
<path d="M6.26085 7.26633C6.29031 7.26633 6.31419 7.24246 6.31419 7.213C6.31419 7.18355 6.29031 7.15967 6.26085 7.15967C6.2314 7.15967 6.20752 7.18355 6.20752 7.213C6.20752 7.24246 6.2314 7.26633 6.26085 7.26633Z" fill="white"/>
<path d="M6.55577 7.26633C6.58523 7.26633 6.60911 7.24246 6.60911 7.213C6.60911 7.18355 6.58523 7.15967 6.55577 7.15967C6.52632 7.15967 6.50244 7.18355 6.50244 7.213C6.50244 7.24246 6.52632 7.26633 6.55577 7.26633Z" fill="white"/>
<path d="M5.3965 8.0842C5.39585 8.15924 5.42382 8.23171 5.47472 8.28686C5.49846 8.31341 5.52749 8.33472 5.55994 8.34941C5.59239 8.36411 5.62754 8.37187 5.66316 8.3722C5.73783 8.3722 5.80538 8.33664 5.85161 8.28686C5.9025 8.23171 5.93047 8.15924 5.92983 8.0842V7.7002H5.3965V8.0842Z" fill="#003399"/>
<path d="M5.52111 7.89915C5.55056 7.89915 5.57444 7.87527 5.57444 7.84581C5.57444 7.81636 5.55056 7.79248 5.52111 7.79248C5.49165 7.79248 5.46777 7.81636 5.46777 7.84581C5.46777 7.87527 5.49165 7.89915 5.52111 7.89915Z" fill="white"/>
<path d="M5.81603 7.89915C5.84548 7.89915 5.86936 7.87527 5.86936 7.84581C5.86936 7.81636 5.84548 7.79248 5.81603 7.79248C5.78657 7.79248 5.7627 7.81636 5.7627 7.84581C5.7627 7.87527 5.78657 7.89915 5.81603 7.89915Z" fill="white"/>
<path d="M5.66661 8.04173C5.69607 8.04173 5.71995 8.01785 5.71995 7.98839C5.71995 7.95894 5.69607 7.93506 5.66661 7.93506C5.63716 7.93506 5.61328 7.95894 5.61328 7.98839C5.61328 8.01785 5.63716 8.04173 5.66661 8.04173Z" fill="white"/>
<path d="M5.52111 8.19065C5.55056 8.19065 5.57444 8.16677 5.57444 8.13732C5.57444 8.10786 5.55056 8.08398 5.52111 8.08398C5.49165 8.08398 5.46777 8.10786 5.46777 8.13732C5.46777 8.16677 5.49165 8.19065 5.52111 8.19065Z" fill="white"/>
<path d="M5.81603 8.19065C5.84548 8.19065 5.86936 8.16677 5.86936 8.13732C5.86936 8.10786 5.84548 8.08398 5.81603 8.08398C5.78657 8.08398 5.7627 8.10786 5.7627 8.13732C5.7627 8.16677 5.78657 8.19065 5.81603 8.19065Z" fill="white"/>
<path d="M6.8755 8.0842C6.87486 8.15924 6.90283 8.23171 6.95372 8.28686C6.97747 8.31341 7.00649 8.33472 7.03894 8.34941C7.07139 8.36411 7.10655 8.37187 7.14217 8.3722C7.21683 8.3722 7.28439 8.33664 7.33061 8.28686C7.38151 8.23171 7.40948 8.15924 7.40883 8.0842V7.7002H6.8755V8.0842Z" fill="#003399"/>
<path d="M7.00011 7.89915C7.02957 7.89915 7.05344 7.87527 7.05344 7.84581C7.05344 7.81636 7.02957 7.79248 7.00011 7.79248C6.97066 7.79248 6.94678 7.81636 6.94678 7.84581C6.94678 7.87527 6.97066 7.89915 7.00011 7.89915Z" fill="white"/>
<path d="M7.29503 7.89915C7.32449 7.89915 7.34837 7.87527 7.34837 7.84581C7.34837 7.81636 7.32449 7.79248 7.29503 7.79248C7.26558 7.79248 7.2417 7.81636 7.2417 7.84581C7.2417 7.87527 7.26558 7.89915 7.29503 7.89915Z" fill="white"/>
<path d="M7.14562 8.04173C7.17507 8.04173 7.19895 8.01785 7.19895 7.98839C7.19895 7.95894 7.17507 7.93506 7.14562 7.93506C7.11616 7.93506 7.09229 7.95894 7.09229 7.98839C7.09229 8.01785 7.11616 8.04173 7.14562 8.04173Z" fill="white"/>
<path d="M7.00011 8.19065C7.02957 8.19065 7.05344 8.16677 7.05344 8.13732C7.05344 8.10786 7.02957 8.08398 7.00011 8.08398C6.97066 8.08398 6.94678 8.10786 6.94678 8.13732C6.94678 8.16677 6.97066 8.19065 7.00011 8.19065Z" fill="white"/>
<path d="M7.29503 8.19065C7.32449 8.19065 7.34837 8.16677 7.34837 8.13732C7.34837 8.10786 7.32449 8.08398 7.29503 8.08398C7.26558 8.08398 7.2417 8.10786 7.2417 8.13732C7.2417 8.16677 7.26558 8.19065 7.29503 8.19065Z" fill="white"/>
<path d="M6.13624 9.00119C6.1356 9.07623 6.16357 9.1487 6.21446 9.20386C6.23821 9.23041 6.26723 9.25171 6.29968 9.2664C6.33213 9.2811 6.36729 9.28886 6.40291 9.28919C6.47758 9.28919 6.54513 9.25363 6.59135 9.20386C6.64225 9.1487 6.67022 9.07623 6.66958 9.00119V8.61719H6.13624V9.00119Z" fill="#003399"/>
<path d="M6.26085 8.81614C6.29031 8.81614 6.31419 8.79226 6.31419 8.76281C6.31419 8.73335 6.29031 8.70947 6.26085 8.70947C6.2314 8.70947 6.20752 8.73335 6.20752 8.76281C6.20752 8.79226 6.2314 8.81614 6.26085 8.81614Z" fill="white"/>
<path d="M6.55577 8.81614C6.58523 8.81614 6.60911 8.79226 6.60911 8.76281C6.60911 8.73335 6.58523 8.70947 6.55577 8.70947C6.52632 8.70947 6.50244 8.73335 6.50244 8.76281C6.50244 8.79226 6.52632 8.81614 6.55577 8.81614Z" fill="white"/>
<path d="M6.40636 8.95872C6.43582 8.95872 6.45969 8.93484 6.45969 8.90538C6.45969 8.87593 6.43582 8.85205 6.40636 8.85205C6.37691 8.85205 6.35303 8.87593 6.35303 8.90538C6.35303 8.93484 6.37691 8.95872 6.40636 8.95872Z" fill="white"/>
<path d="M6.26085 9.10764C6.29031 9.10764 6.31419 9.08377 6.31419 9.05431C6.31419 9.02485 6.29031 9.00098 6.26085 9.00098C6.2314 9.00098 6.20752 9.02485 6.20752 9.05431C6.20752 9.08377 6.2314 9.10764 6.26085 9.10764Z" fill="white"/>
<path d="M6.55577 9.10764C6.58523 9.10764 6.60911 9.08377 6.60911 9.05431C6.60911 9.02485 6.58523 9.00098 6.55577 9.00098C6.52632 9.00098 6.50244 9.02485 6.50244 9.05431C6.50244 9.08377 6.52632 9.10764 6.55577 9.10764Z" fill="white"/>
</g>
<defs>
<clipPath id="clip0_576_60100">
<rect width="16" height="16" rx="8" fill="white"/>
</clipPath>
</defs>
</svg>
